<svg width="23" height="16" viewBox="0 0 23 16" fill="none" xmlns="http://www.w3.org/2000/svg">
<g id="icons" clip-path="url(#clip0_1786_16396)">
<path id="Vector" d="M3.27663 14.2545H20.0473C20.4795 14.2545 20.8939
14.0978 21.1994 13.8188C21.5049 13.5398 21.6766 13.1615 21.6766 12.7669V5.07105C21.6766
4.67651 21.5049 4.29815 21.1994 4.01917C20.8939 3.74019 20.4795 3.58344 20.0473
3.58344H11.7272L8.90307 1.16364H3.26575C2.83364 1.16364 2.41922 1.32036 2.11367
1.59934C1.80812 1.87832 1.63647 2.2567 1.63647 2.65124V12.7669C1.63647 12.9631 1.67898
13.1574 1.76154 13.3385C1.8441 13.5196 1.96507 13.6841 2.11752 13.8223C2.26996 13.9606
 2.45084 14.07 2.64977 14.1441C2.8487 14.2183 3.06175 14.2558 3.27663 14.2545Z"
      fill="#D9D9D9" stroke="black" stroke-width="1.5" stroke-miterlimit="10" stroke-linecap="round"/>
</g>
<defs>
<clipPath id="clip0_1786_16396">
<rect width="23" height="16" fill="white"/>
</clipPath>
</defs>
</svg>
