<svg width="23" height="16" viewBox="0 0 23 16" fill="none" xmlns="http://www.w3.org/2000/svg">
<g id="icons" clip-path="url(#clip0_1766_14780)">
<path id="Vector" d="M2.99164 14.2545H16.7074C17.1019 14.2545 17.4803 14.0978 17.7593 13.8188C18.0382 13.5398 18.195 13.1615 18.195 12.7669V5.07105C18.195 4.67651 18.0382 4.29815 17.7593 4.01917C17.4803 3.74019 17.1019 3.58344 16.7074 3.58344H10.4098L7.84124 1.16364H2.98174C2.58721 1.16364 2.20882 1.32036 1.92984 1.59934C1.65086 1.87832 1.49414 2.2567 1.49414 2.65124V12.7669C1.49414 12.9631 1.53292 13.1574 1.6083 13.3385C1.68368 13.5196 1.79416 13.6841 1.93335 13.8223C2.07254 13.9606 2.23769 14.07 2.41932 14.1441C2.60095 14.2183 2.79545 14.2558 2.99164 14.2545Z" fill="#464541" stroke="#DDDCD4" stroke-width="1.5" stroke-miterlimit="10" stroke-linecap="round"/>
<path id="Vector_2" d="M20.9222 7.22314H7.09741C6.74909 7.22762 6.4077 7.32108 6.10568 7.49466C5.80365 7.66823 5.55102 7.91617 5.3718 8.21488L2.16848 13.1736C2.10286 13.2769 2.06613 13.3958 2.06213 13.5182C2.05814 13.6405 2.08701 13.7616 2.14576 13.869C2.2045 13.9763 2.29098 14.066 2.39614 14.1286C2.5013 14.1911 2.6213 14.2244 2.74368 14.2248H17.104C17.4418 14.2282 17.7749 14.1453 18.0717 13.9839C18.3685 13.8225 18.6192 13.5879 18.7999 13.3025L21.7751 8.71075C21.8619 8.56042 21.9077 8.38994 21.908 8.21636C21.9082 8.04278 21.8629 7.87217 21.7766 7.72158C21.6903 7.571 21.5659 7.44572 21.416 7.35825C21.2661 7.27078 21.0958 7.22419 20.9222 7.22314Z" fill="#464541" stroke="#DDDCD4" stroke-width="1.5" stroke-miterlimit="10" stroke-linecap="round"/>
</g>
<defs>
<clipPath id="clip0_1766_14780">
<rect width="23" height="16" fill="white"/>
</clipPath>
</defs>
</svg>
