<svg width="30" height="30" viewBox="0 0 30 30" fill="none" xmlns="http://www.w3.org/2000/svg">
<g id="Type=basic_display_icon, State=Active, theme=dark">
<path id="Vector" d="M12.2365 4.80121H10.6758C10.2367 4.80121 9.88062 5.15724 9.88062 5.59644V10.2088C9.88062 10.648 10.2367 11.004 10.6758 11.004H12.2365C12.6757 11.004 13.0317 10.648 13.0317 10.2088V5.59644C13.0317 5.15724 12.6757 4.80121 12.2365 4.80121Z" fill="#4CEB4C"/>
<path id="Vector_2" d="M15.338 18.9662H13.7774C13.3382 18.9662 12.9822 19.3222 12.9822 19.7614V24.3737C12.9822 24.8129 13.3382 25.169 13.7774 25.169H15.338C15.7772 25.169 16.1333 24.8129 16.1333 24.3737V19.7614C16.1333 19.3222 15.7772 18.9662 15.338 18.9662Z" fill="#4CEB4C"/>
<path id="Vector_3" d="M6.96826 7.90259H22.0875" stroke="#4CEB4C" stroke-width="1.5" stroke-miterlimit="10" stroke-linecap="round"/>
<path id="Vector_4" d="M6.96826 22.0676H22.0875" stroke="#4CEB4C" stroke-width="1.5" stroke-miterlimit="10" stroke-linecap="round"/>
<path id="Vector_5" d="M20.1093 11.8887H18.5486C18.1095 11.8887 17.7534 12.2447 17.7534 12.6839V17.2962C17.7534 17.7354 18.1095 18.0915 18.5486 18.0915H20.1093C20.5485 18.0915 20.9045 17.7354 20.9045 17.2962V12.6839C20.9045 12.2447 20.5485 11.8887 20.1093 11.8887Z" fill="#4CEB4C"/>
<path id="Vector_6" d="M6.96826 14.9901H22.0875" stroke="#4CEB4C" stroke-width="1.5" stroke-miterlimit="10" stroke-linecap="round"/>
</g>
</svg>
