<svg width="30" height="30" viewBox="0 0 30 30" fill="none" xmlns="http://www.w3.org/2000/svg">
<g id="Type=isocontours_icon, State=Active, theme=dark">
<path id="Vector" d="M25.6361 4.43341H4.49292V25.5766H25.6361V4.43341Z" stroke="#4CEB4C" stroke-width="1.5" stroke-linejoin="round"/>
<path id="Vector_2" d="M4.49316 7.75351C6.29968 6.8787 7.995 5.79077 9.54288 4.51294" stroke="#4CEB4C" stroke-miterlimit="10"/>
<path id="Vector_3" d="M4.49316 11.3618C6.6204 9.44334 11.68 7.3161 16.1532 7.3161C20.6263 7.3161 23.7277 9.30417 23.7277 14.5527C23.7277 19.8012 19.4733 20.2087 17.3361 20.2087C11.2128 20.2087 6.40171 19.0358 4.49316 16.5109" stroke="#4CEB4C" stroke-miterlimit="10"/>
<path id="Vector_4" d="M14.5031 10.1888C18.012 10.1888 20.845 11.7395 20.845 14.165C20.845 16.5904 17.2864 17.5746 14.2446 17.5746C11.2029 17.5746 7.28638 16.0238 7.28638 14.165C7.28638 12.3061 10.0399 10.1888 14.5031 10.1888Z" stroke="#4CEB4C" stroke-miterlimit="10"/>
<path id="Vector_5" d="M14.0556 12.4851C16.153 12.4851 16.7892 13.3499 16.7892 13.8966C16.7892 14.4433 16.0933 15.5269 14.0556 15.5269C12.0178 15.5269 11.2126 14.4135 11.2126 14.006C11.2524 13.2505 13.0516 12.4851 14.0556 12.4851Z" stroke="#4CEB4C" stroke-miterlimit="10"/>
<path id="Vector_6" d="M4.49316 23.1113C6.1035 22.3658 12.3659 21.9582 16.1532 23.1113C19.9405 24.2644 19.8311 25.5666 19.8311 25.5666" stroke="#4CEB4C" stroke-miterlimit="10"/>
</g>
</svg>
