<svg width="30" height="30" viewBox="0 0 30 30" fill="none" xmlns="http://www.w3.org/2000/svg">
<g id="Type=nodes_icon, State=Active, theme=dark">
<path id="Vector" d="M10.1689 7.92246C10.1689 6.7037 9.18089 5.7157 7.96213 5.7157C6.74337 5.7157 5.75537 6.7037 5.75537 7.92246C5.75537 9.14122 6.74337 10.1292 7.96213 10.1292C9.18089 10.1292 10.1689 9.14122 10.1689 7.92246Z" fill="#4CEB4C"/>
<path id="Vector_2" d="M14.9801 5.28827H14.9701C13.5153 5.28827 12.3359 6.46764 12.3359 7.92246V7.9324C12.3359 9.38723 13.5153 10.5666 14.9701 10.5666H14.9801C16.4349 10.5666 17.6143 9.38723 17.6143 7.9324V7.92246C17.6143 6.46764 16.4349 5.28827 14.9801 5.28827Z" fill="#4CEB4C"/>
<path id="Vector_3" d="M21.998 4.99005H21.9881C20.3685 4.99005 19.0557 6.30293 19.0557 7.92246V7.9324C19.0557 9.55192 20.3685 10.8648 21.9881 10.8648H21.998C23.6175 10.8648 24.9304 9.55192 24.9304 7.9324V7.92246C24.9304 6.30293 23.6175 4.99005 21.998 4.99005Z" fill="#4CEB4C"/>
<path id="Vector_4" d="M10.0198 14.9702C10.0198 13.8338 9.09861 12.9125 7.9622 12.9125C6.82578 12.9125 5.90454 13.8338 5.90454 14.9702C5.90454 16.1066 6.82578 17.0278 7.9622 17.0278C9.09861 17.0278 10.0198 16.1066 10.0198 14.9702Z" fill="#4CEB4C"/>
<path id="Vector_5" d="M17.2864 14.9702C17.2864 13.6965 16.2539 12.664 14.9802 12.664C13.7066 12.664 12.6741 13.6965 12.6741 14.9702C12.6741 16.2438 13.7066 17.2763 14.9802 17.2763C16.2539 17.2763 17.2864 16.2438 17.2864 14.9702Z" fill="#4CEB4C"/>
<path id="Vector_6" d="M24.4931 14.9702C24.4931 13.5867 23.3716 12.4652 21.9881 12.4652C20.6047 12.4652 19.4832 13.5867 19.4832 14.9702C19.4832 16.3536 20.6047 17.4752 21.9881 17.4752C23.3716 17.4752 24.4931 16.3536 24.4931 14.9702Z" fill="#4CEB4C"/>
<path id="Vector_7" d="M9.65218 22.0278C9.65218 21.0945 8.89561 20.338 7.96232 20.338C7.02904 20.338 6.27246 21.0945 6.27246 22.0278C6.27246 22.9611 7.02904 23.7177 7.96232 23.7177C8.89561 23.7177 9.65218 22.9611 9.65218 22.0278Z" fill="#4CEB4C"/>
<path id="Vector_8" d="M16.9185 22.0179C16.9185 20.9474 16.0506 20.0795 14.9801 20.0795C13.9096 20.0795 13.0417 20.9474 13.0417 22.0179C13.0417 23.0884 13.9096 23.9563 14.9801 23.9563C16.0506 23.9563 16.9185 23.0884 16.9185 22.0179Z" fill="#4CEB4C"/>
<path id="Vector_9" d="M24.2844 22.0229C24.2844 20.7575 23.2586 19.7316 21.9932 19.7316C20.7277 19.7316 19.7019 20.7575 19.7019 22.0229C19.7019 23.2883 20.7277 24.3141 21.9932 24.3141C23.2586 24.3141 24.2844 23.2883 24.2844 22.0229Z" fill="#4CEB4C"/>
</g>
</svg>
