<svg width="30" height="30" viewBox="0 0 30 30" fill="none" xmlns="http://www.w3.org/2000/svg">
<g id="Type=rose_diagram_icon, State=Active, theme=dark">
<path id="Vector" d="M11.2725 9.39368L14.523 14.9901V8.51893C13.3811 8.51724 12.2593 8.81914 11.2725 9.39368Z" fill="#F77373"/>
<path id="Vector_2" d="M18.4791 14.9901H14.5029L17.9125 16.9781C18.2773 16.3787 18.4731 15.6917 18.4791 14.9901Z" fill="#F77373"/>
<path id="Vector_3" d="M17.7834 9.40356L19.1154 7.11729C17.7238 6.29849 16.1375 5.8693 14.5229 5.87475V8.51888V14.99L17.7834 9.40356Z" fill="#F77373"/>
<path id="Vector_4" d="M20.1392 11.7793L14.5229 14.99H25.01C25.0103 13.1619 24.5304 11.3657 23.6183 9.78131L20.1392 11.7793Z" fill="#F77373"/>
<path id="Vector_5" d="M17.7834 20.5865L14.5229 14.9901V21.4712C15.6697 21.476 16.7963 21.1703 17.7834 20.5865Z" fill="#F77373"/>
<path id="Vector_6" d="M10.5764 14.99H14.5526L11.143 13.002C10.7822 13.6031 10.5867 14.289 10.5764 14.99Z" fill="#F77373"/>
<path id="Vector_7" d="M11.2624 20.5865L9.96021 22.8628C11.3502 23.6768 12.9319 24.1057 14.5427 24.1054V21.4712V14.9901L11.2823 20.5865H11.2624Z" fill="#F77373"/>
<path id="Vector_8" d="M8.90654 18.2107L14.5229 14.9901H4.04569C4.04063 16.8207 4.51716 18.6204 5.42742 20.2087L8.90654 18.2107Z" fill="#F77373"/>
<path id="Vector_9" d="M14.523 4.5129C16.598 4.51094 18.6269 5.12458 20.353 6.27616C22.0791 7.42774 23.4248 9.06548 24.2198 10.9821C25.0148 12.8988 25.2232 15.0082 24.8189 17.0435C24.4146 19.0787 23.4156 20.9482 21.9484 22.4154C20.4811 23.8827 18.6116 24.8817 16.5764 25.286C14.5412 25.6904 12.4317 25.4818 10.515 24.6869C8.59836 23.8919 6.96065 22.5462 5.80907 20.8201C4.6575 19.094 4.04382 17.065 4.04579 14.99C4.04579 12.2113 5.14963 9.54643 7.11448 7.58159C9.07932 5.61674 11.7443 4.5129 14.523 4.5129ZM14.523 3.02185C12.1637 3.02185 9.85748 3.72145 7.89586 5.03216C5.93424 6.34287 4.40531 8.20581 3.50248 10.3854C2.59965 12.5651 2.36343 14.9635 2.82369 17.2774C3.28395 19.5913 4.42006 21.7167 6.08828 23.3849C7.7565 25.0532 9.88192 26.1892 12.1958 26.6495C14.5097 27.1098 16.9081 26.8735 19.0877 25.9707C21.2674 25.0679 23.1303 23.539 24.4411 21.5774C25.7518 19.6157 26.4514 17.3095 26.4514 14.9503C26.4383 11.7907 25.1773 8.76425 22.9431 6.53007C20.709 4.29588 17.6826 3.03493 14.523 3.02185Z" fill="#F77373"/>
</g>
</svg>
