<svg width="30" height="30" viewBox="0 0 30 30" fill="none" xmlns="http://www.w3.org/2000/svg">
<g id="Type=streamlines_icon, State=Active, theme=dark">
<path id="Vector" d="M25.5765 4.43341H4.43335V25.5766H25.5765V4.43341Z" stroke="#4CEB4C" stroke-width="1.5" stroke-linejoin="round"/>
<path id="Vector_2" d="M4.42358 19.7316C5.59259 16.9493 7.37282 14.4658 9.63232 12.4652C12.7238 9.78131 16.2427 10.8946 18.8172 9.00598C20.4608 7.74734 21.8591 6.19741 22.9425 4.43341" stroke="#4CEB4C" stroke-miterlimit="10"/>
<path id="Vector_3" d="M4.42358 13.5587C6.41166 9.86084 8.26052 8.58846 9.72175 7.92246C11.8529 7.02329 13.8578 5.85042 15.686 4.43341" stroke="#4CEB4C" stroke-miterlimit="10"/>
<path id="Vector_4" d="M4.42358 23.9563C8.1711 18.1908 12.6343 15.0099 17.1075 15.0099C20.1875 15.0887 23.1921 14.0507 25.5667 12.0875" stroke="#4CEB4C" stroke-miterlimit="10"/>
<path id="Vector_5" d="M7.76343 25.5666C12.5746 21.0238 15.7157 19.7813 18.6978 20.338C21.0027 20.6664 23.3279 20.8325 25.6561 20.835" stroke="#4CEB4C" stroke-miterlimit="10"/>
</g>
</svg>
