<svg width="30" height="30" viewBox="0 0 30 30" fill="none" xmlns="http://www.w3.org/2000/svg">
<g id="Type=tensors_icon, State=Active, theme=dark">
<path id="Vector" d="M10.2485 16.0636V13.5487" stroke="#4CEB4C" stroke-width="1.5" stroke-linecap="round" stroke-linejoin="round"/>
<path id="Vector_2" d="M12.1073 14.0855L10.2485 10.8748L8.38965 14.0855H12.1073Z" fill="#4CEB4C"/>
<path id="Vector_3" d="M10.2485 4.60236V7.11727" stroke="#4CEB4C" stroke-width="1.5" stroke-linecap="round" stroke-linejoin="round"/>
<path id="Vector_4" d="M8.38965 6.58051L10.2485 9.79124L12.1073 6.58051H8.38965Z" fill="#4CEB4C"/>
<path id="Vector_5" d="M4.10547 10.328H7.03787" stroke="#4CEB4C" stroke-width="1.5" stroke-linecap="round" stroke-linejoin="round"/>
<path id="Vector_6" d="M6.49097 12.1869L9.71164 10.328L6.49097 8.47913V12.1869Z" fill="#4CEB4C"/>
<path id="Vector_7" d="M16.4016 10.328H13.4692" stroke="#4CEB4C" stroke-width="1.5" stroke-linecap="round" stroke-linejoin="round"/>
<path id="Vector_8" d="M14.0059 8.47913L10.7952 10.328L14.0059 12.1869V8.47913Z" fill="#4CEB4C"/>
<path id="Vector_9" d="M17.0378 26.4811L17.7138 22.9921" stroke="#4CEB4C" stroke-width="1.5" stroke-linecap="round" stroke-linejoin="round"/>
<path id="Vector_10" d="M19.4335 23.8767L18.2208 20.3678L15.7854 23.171L19.4335 23.8767Z" fill="#4CEB4C"/>
<path id="Vector_11" d="M19.6423 12.9821L18.9663 16.4712" stroke="#4CEB4C" stroke-width="1.5" stroke-linecap="round" stroke-linejoin="round"/>
<path id="Vector_12" d="M17.2466 15.5865L18.4593 19.0954L20.8947 16.2923L17.2466 15.5865Z" fill="#4CEB4C"/>
<path id="Vector_13" d="M11.0935 18.33L15.0796 19.1054" stroke="#4CEB4C" stroke-width="1.5" stroke-linecap="round" stroke-linejoin="round"/>
<path id="Vector_14" d="M14.1948 20.8251L17.7038 19.6123L14.9006 17.1769L14.1948 20.8251Z" fill="#4CEB4C"/>
<path id="Vector_15" d="M25.5864 21.1233L21.6003 20.3578" stroke="#4CEB4C" stroke-width="1.5" stroke-linecap="round" stroke-linejoin="round"/>
<path id="Vector_16" d="M22.485 18.6382L18.9761 19.8509L21.7892 22.2863L22.485 18.6382Z" fill="#4CEB4C"/>
</g>
</svg>
