<svg xmlns="http://www.w3.org/2000/svg"  width="31" height="31" viewBox="0 0 31 31" fill="none" >
<path d="M3.13989 17.49C3.3439 19.0782 3.90979 20.5984 4.79401 21.9334C5.67822 23.2684 6.85715 24.3825 8.2399 25.19L12.7299 17.49H3.13989Z" fill="#0E810E"/>
<path d="M18.8301 7.05C17.3134 6.16139 15.5977 5.6682 13.8406 5.6157C12.0835 5.56321 10.3414 5.95308 8.77435 6.74955C7.20729 7.54603 5.86551 8.72356 4.87228 10.1739C3.87905 11.6243 3.26621 13.301 3.09009 15.05H14.0901L18.8301 7.05Z" fill="#C4C83A"/>
<path d="M11.48 23.13C12.9972 24.0159 14.7124 24.5069 16.4686 24.5581C18.2247 24.6092 19.9656 24.2189 21.5319 23.4229C23.0981 22.6268 24.4395 21.4505 25.4333 20.0017C26.427 18.5528 27.0414 16.8778 27.22 15.13H16.22L11.48 23.13Z" fill="#0E810E"/>
<path d="M22.0701 4.98999L17.5701 12.69H27.1701C26.9653 11.102 26.3991 9.58213 25.515 8.24725C24.6308 6.91237 23.4523 5.79805 22.0701 4.98999Z" fill="#C4C83A"/>
</svg>
