<svg width="10" height="11" viewBox="0 0 10 11" fill="none" xmlns="http://www.w3.org/2000/svg">
<g id="Type=down_icon, State=Active, theme=dark" clip-path="url(#clip0_342_2057)">
<path id="Vector" d="M0.423187 1.71241L4.17195 10.1818C4.24506 10.3399 4.36188 10.4737 4.50862 10.5675C4.65536 10.6613 4.82588 10.7112 5.00004 10.7112C5.1742 10.7112 5.34472 10.6613 5.49146 10.5675C5.6382 10.4737 5.75504 10.3399 5.82816 10.1818L9.57692 1.71241C9.63802 1.57511 9.66385 1.42472 9.6521 1.2749C9.64034 1.12507 9.59137 0.980546 9.50961 0.854451C9.42784 0.728355 9.31589 0.624681 9.18389 0.552826C9.0519 0.480971 8.90405 0.443222 8.75376 0.442993H1.24631C1.09603 0.443222 0.948207 0.480971 0.816214 0.552826C0.68422 0.624681 0.572232 0.728355 0.490467 0.854451C0.408702 0.980546 0.35973 1.12507 0.347978 1.2749C0.336226 1.42472 0.362082 1.57511 0.423187 1.71241Z" fill="#EDECE8"/>
</g>
<defs>
<clipPath id="clip0_342_2057">
<rect width="10" height="11" fill="white"/>
</clipPath>
</defs>
</svg>
