<svg width="25" height="25" viewBox="0 0 25 25" fill="none" xmlns="http://www.w3.org/2000/svg">
<g id="Type=info_icon, State=Active, theme=dark">
<path id="Vector" d="M12.5 5.24354C13.9359 5.2419 15.34 5.66631 16.5345 6.46303C17.7291 7.25975 18.6605 8.39297 19.2107 9.71925C19.761 11.0455 19.9054 12.5052 19.6257 13.9136C19.346 15.322 18.6547 16.6158 17.6393 17.6311C16.624 18.6464 15.3303 19.3377 13.9219 19.6174C12.5135 19.8972 11.0538 19.7528 9.72749 19.2025C8.40121 18.6523 7.268 17.7209 6.47128 16.5263C5.67456 15.3317 5.25015 13.9276 5.25179 12.4917C5.25179 10.5694 6.01542 8.72577 7.37472 7.36648C8.73402 6.00718 10.5776 5.24354 12.5 5.24354ZM12.5 4.001C10.8183 3.99936 9.17397 4.49663 7.77505 5.42988C6.37612 6.36313 5.2855 7.69041 4.64121 9.24374C3.99691 10.7971 3.82791 12.5066 4.15558 14.1561C4.48326 15.8055 5.29286 17.3206 6.48197 18.5097C7.67107 19.6988 9.18621 20.5084 10.8356 20.8361C12.485 21.1638 14.1946 20.9948 15.7479 20.3505C17.3013 19.7062 18.6286 18.6156 19.5618 17.2166C20.4951 15.8177 20.9923 14.1734 20.9907 12.4917C20.9885 10.2405 20.0932 8.08213 18.5014 6.49028C16.9096 4.89844 14.7512 4.00319 12.5 4.001Z" fill="#EDECE8"/>
<path id="Vector_2" d="M11.1663 12.7154V17.8015H12.2266C12.666 17.8015 13.0874 17.627 13.398 17.3163C13.7087 17.0056 13.8833 16.5842 13.8833 16.1448V10.8515L11.1663 12.7154Z" fill="#EDECE8"/>
<path id="Vector_3" d="M12.5165 10.2634C13.2668 10.2634 13.875 9.65519 13.875 8.9049C13.875 8.15462 13.2668 7.54639 12.5165 7.54639C11.7662 7.54639 11.158 8.15462 11.158 8.9049C11.158 9.65519 11.7662 10.2634 12.5165 10.2634Z" fill="#EDECE8"/>
</g>
</svg>
