<svg width="11" height="10" viewBox="0 0 11 10" fill="none" xmlns="http://www.w3.org/2000/svg">
<g id="Type=next_icon, State=Active, theme=dark" clip-path="url(#clip0_248_2036)">
<path id="Vector" d="M1.89472 9.8211L10.3838 6.05369C10.5422 5.98041 10.6764 5.86332 10.7704 5.71624C10.8644 5.56916 10.9144 5.39824 10.9144 5.22368C10.9144 5.04912 10.8644 4.8782 10.7704 4.73112C10.6764 4.58404 10.5422 4.46695 10.3838 4.39367L1.89472 0.636185C1.7571 0.574938 1.60636 0.549052 1.45619 0.560831C1.30602 0.57261 1.16115 0.621697 1.03477 0.703651C0.908379 0.785606 0.804465 0.897823 0.732443 1.03012C0.660421 1.16242 0.622584 1.31062 0.622355 1.46125V8.98611C0.620918 9.13758 0.657536 9.28697 0.728863 9.42061C0.800191 9.55424 0.903936 9.66785 1.03058 9.75096C1.15723 9.83407 1.30272 9.88404 1.4537 9.8963C1.60468 9.90855 1.75633 9.88269 1.89472 9.8211Z" fill="#EDECE8"/>
</g>
<defs>
<clipPath id="clip0_248_2036">
<rect width="11" height="10" fill="white"/>
</clipPath>
</defs>
</svg>
