<svg width="31" height="31" viewBox="0 0 31 31" fill="none" xmlns="http://www.w3.org/2000/svg">
<g id="state=locked">
<g id="icons">
<path id="Vector" d="M11.93 9.70001L20.05 18.26L16.12 18.45C15.6745 18.4706 15.2486 18.6396 14.91 18.93L11.91 21.5V9.70001M10.91 6.70001C10.8435 6.69868 10.7774 6.71064 10.7156 6.73517C10.6538 6.7597 10.5975 6.7963 10.55 6.84286C10.5025 6.88943 10.4648 6.94502 10.439 7.00635C10.4133 7.06767 10.4 7.1335 10.4 7.20001V23.69C10.4 23.7565 10.4133 23.8224 10.439 23.8837C10.4648 23.945 10.5025 24.0006 10.55 24.0471C10.5975 24.0937 10.6538 24.1303 10.7156 24.1549C10.7774 24.1794 10.8435 24.1913 10.91 24.19C11.0273 24.188 11.1403 24.1456 11.23 24.07L15.86 20.07C15.9412 19.9934 16.0484 19.9505 16.16 19.95L22.27 19.66C22.367 19.6567 22.461 19.6253 22.5405 19.5695C22.6199 19.5138 22.6814 19.4361 22.7175 19.346C22.7535 19.2559 22.7625 19.1572 22.7435 19.062C22.7244 18.9668 22.678 18.8793 22.61 18.81L11.27 6.81003C11.2236 6.76082 11.1679 6.72132 11.1061 6.69385C11.0443 6.66638 10.9777 6.65149 10.91 6.65002V6.70001Z" fill="#696653"/>
</g>
</g>
</svg>
