<svg width="25" height="25" viewBox="0 0 25 25" fill="none" xmlns="http://www.w3.org/2000/svg">preferences_icon_dark
<g id="Type=preferences_icon, State=Active, theme=dark">
<path id="Vector" d="M8.23964 12.4793H5.60327" stroke="#EDECE8" stroke-width="1.5" stroke-miterlimit="10" stroke-linecap="round"/>
<path id="Vector_2" d="M19.7108 12.4463L11.5208 12.4711" stroke="#EDECE8" stroke-width="1.5" stroke-miterlimit="10" stroke-linecap="round"/>
<path id="Vector_3" d="M16.8512 7.64463H5.60327" stroke="#EDECE8" stroke-width="1.5" stroke-miterlimit="10" stroke-linecap="round"/>
<path id="Vector_4" d="M14.5041 17.2893H5.60327" stroke="#EDECE8" stroke-width="1.5" stroke-miterlimit="10" stroke-linecap="round"/>
<path id="Vector_5" d="M19.7108 17.2893H17.7852" stroke="#EDECE8" stroke-width="1.5" stroke-miterlimit="10" stroke-linecap="round"/>
<path id="Vector_6" d="M18.4877 9.28099C19.3914 9.28099 20.124 8.54837 20.124 7.64463C20.124 6.74089 19.3914 6.00826 18.4877 6.00826C17.5839 6.00826 16.8513 6.74089 16.8513 7.64463C16.8513 8.54837 17.5839 9.28099 18.4877 9.28099Z" stroke="#EDECE8" stroke-width="1.5" stroke-miterlimit="10" stroke-linecap="round"/>
<path id="Vector_7" d="M9.87611 14.0992C10.7798 14.0992 11.5125 13.3665 11.5125 12.4628C11.5125 11.5591 10.7798 10.8264 9.87611 10.8264C8.97237 10.8264 8.23975 11.5591 8.23975 12.4628C8.23975 13.3665 8.97237 14.0992 9.87611 14.0992Z" stroke="#EDECE8" stroke-width="1.5" stroke-miterlimit="10" stroke-linecap="round"/>
<path id="Vector_8" d="M16.1488 18.9256C17.0526 18.9256 17.7852 18.193 17.7852 17.2893C17.7852 16.3855 17.0526 15.6529 16.1488 15.6529C15.2451 15.6529 14.5125 16.3855 14.5125 17.2893C14.5125 18.193 15.2451 18.9256 16.1488 18.9256Z" stroke="#EDECE8" stroke-width="1.5" stroke-miterlimit="10" stroke-linecap="round"/>
</g>
</svg>
