<svg width="31" height="31" viewBox="0 0 31 31" fill="none" xmlns="http://www.w3.org/2000/svg">
<g id="Type=select_icon, State=Active, theme=dark">
<path id="Vector" d="M11.9299 9.7L20.0499 18.26L16.1199 18.45C15.6743 18.4706 15.2484 18.6396 14.9099 18.93L11.9099 21.5V9.7M10.9099 6.7C10.8434 6.69867 10.7773 6.71062 10.7155 6.73515C10.6537 6.75968 10.5974 6.79629 10.5499 6.84285C10.5024 6.88941 10.4647 6.94501 10.4389 7.00633C10.4132 7.06766 10.3999 7.13349 10.3999 7.2V23.69C10.3999 23.7565 10.4132 23.8224 10.4389 23.8837C10.4647 23.945 10.5024 24.0006 10.5499 24.0471C10.5974 24.0937 10.6537 24.1303 10.7155 24.1549C10.7773 24.1794 10.8434 24.1913 10.9099 24.19C11.0272 24.188 11.1402 24.1456 11.2299 24.07L15.8599 20.07C15.9411 19.9934 16.0483 19.9505 16.1599 19.95L22.2699 19.66C22.3669 19.6567 22.4609 19.6253 22.5403 19.5695C22.6198 19.5138 22.6813 19.4361 22.7173 19.346C22.7534 19.2559 22.7624 19.1572 22.7433 19.062C22.7243 18.9668 22.6779 18.8793 22.6099 18.81L11.2699 6.81001C11.2235 6.76081 11.1678 6.7213 11.106 6.69383C11.0442 6.66636 10.9775 6.65148 10.9099 6.65001V6.7Z" fill="#EDECE8"/>
</g>
</svg>
