<svg width="25" height="25" viewBox="0 0 25 25" fill="none" xmlns="http://www.w3.org/2000/svg">
<path d="M18.257 14.4052L20.1126 14.5378C20.2219 14.5424 20.3288 14.5044 20.4107 14.4318C20.4926 14.3592 20.5431 14.2576 20.5516 14.1485L20.709 11.7628C20.7158 11.6542 20.6797 11.5473 20.6084 11.4652C20.5371 11.383 20.4363 11.3322 20.3279 11.3237L18.4724 11.1995C18.2671 10.1907 17.8048 9.25196 17.1304 8.47416L18.1659 6.92513C18.1971 6.88077 18.219 6.83061 18.2305 6.77762C18.242 6.72463 18.2427 6.66989 18.2327 6.61661C18.2226 6.56334 18.202 6.51262 18.1721 6.46744C18.1421 6.42226 18.1034 6.38353 18.0582 6.35355L16.0702 5.0199C15.9788 4.95996 15.8675 4.9385 15.7605 4.96022C15.6534 4.98194 15.5593 5.04506 15.4986 5.13586L14.4631 6.67663C13.4861 6.35316 12.4432 6.28192 11.4313 6.46954L10.6029 4.81281C10.5791 4.76379 10.5458 4.71996 10.5049 4.68383C10.4641 4.64771 10.4166 4.62001 10.365 4.60231C10.3134 4.58461 10.2589 4.57726 10.2045 4.58069C10.1501 4.58412 10.0969 4.59824 10.0479 4.62228L7.91074 5.65773C7.86172 5.68159 7.81789 5.71488 7.78177 5.75572C7.74564 5.79655 7.71797 5.8441 7.70027 5.89566C7.68256 5.94723 7.6752 6.00178 7.67863 6.05619C7.68205 6.1106 7.6962 6.16381 7.72024 6.21275L8.5486 7.86947C8.16747 8.21276 7.83074 8.60235 7.54626 9.02918C7.25695 9.45195 7.02574 9.91166 6.85876 10.396L5.00318 10.2717C4.94919 10.2672 4.89486 10.2735 4.84336 10.2904C4.79186 10.3072 4.74423 10.3341 4.70331 10.3697C4.6624 10.4052 4.62903 10.4485 4.60513 10.4971C4.58123 10.5458 4.5673 10.5987 4.56417 10.6528L4.39849 13.0385C4.39513 13.0929 4.40257 13.1474 4.42033 13.199C4.4381 13.2505 4.46582 13.298 4.50199 13.3388C4.53816 13.3796 4.58207 13.4128 4.63112 13.4366C4.68016 13.4604 4.73342 13.4743 4.78785 13.4775L6.64337 13.61C6.84769 14.6175 7.30685 15.5558 7.97703 16.3353L6.94157 17.8761C6.88163 17.9674 6.86019 18.0787 6.88191 18.1857C6.90363 18.2928 6.96676 18.3869 7.05756 18.4477L9.03736 19.7813C9.12897 19.8425 9.24083 19.8655 9.34915 19.8454C9.45748 19.8253 9.55364 19.7637 9.61717 19.6736L10.6526 18.1246C11.6287 18.4528 12.6728 18.5241 13.6845 18.3317L14.5128 19.9884C14.5626 20.0859 14.6483 20.1602 14.7518 20.1957C14.8553 20.2313 14.9686 20.2253 15.0678 20.1789L17.2133 19.1269C17.2623 19.1031 17.3062 19.0698 17.3423 19.0289C17.3784 18.9881 17.4061 18.9405 17.4238 18.889C17.4415 18.8374 17.4488 18.7829 17.4454 18.7284C17.442 18.674 17.4278 18.6208 17.4038 18.5719L16.5754 16.9152C16.9612 16.5772 17.3009 16.1901 17.586 15.7638C17.8723 15.3363 18.1033 14.8742 18.2736 14.3887L18.257 14.4052ZM15.4323 11.9202C15.5814 15.6147 10.9674 16.5259 9.70833 13.0467C9.70062 12.9946 9.70062 12.9415 9.70833 12.8894C9.55094 9.18657 14.1732 8.27535 15.4323 11.7628C15.4366 11.8179 15.4366 11.8733 15.4323 11.9284V11.9202Z" fill="#EDECE8"/>
</svg>
