<svg width="25" height="25" viewBox="0 0 25 25" fill="none" xmlns="http://www.w3.org/2000/svg">
    <g id="Type=show_icon, State=Active, theme=dark">
        <path id="Vector"
              d="M12.5041 7.40496C15.4298 7.40496 17.9256 9.44627 20.2727 11.9339C20.4168 12.0871 20.4971 12.2896 20.4971 12.5C20.4971 12.7104 20.4168 12.9129 20.2727 13.0661C17.9256 15.5455 15.4298 17.595 12.5041 17.595C9.57851 17.595 7.08264 15.5455 4.72727 13.0661C4.58316 12.9129 4.50293 12.7104 4.50293 12.5C4.50293 12.2896 4.58316 12.0871 4.72727 11.9339C7.08264 9.44627 9.57851 7.40496 12.5041 7.40496ZM12.5041 9.13223C11.8389 9.13223 11.1885 9.3295 10.6354 9.6991C10.0823 10.0687 9.65112 10.594 9.39654 11.2087C9.14195 11.8233 9.07532 12.4996 9.20511 13.1521C9.3349 13.8046 9.65527 14.4039 10.1257 14.8743C10.5961 15.3447 11.1954 15.6651 11.8479 15.7949C12.5004 15.9247 13.1767 15.8581 13.7913 15.6035C14.4059 15.3489 14.9313 14.9178 15.3009 14.3646C15.6705 13.8115 15.8678 13.1611 15.8678 12.4959C15.8678 11.6038 15.5134 10.7482 14.8826 10.1174C14.2518 9.48662 13.3962 9.13223 12.5041 9.13223Z"
              fill="#8C876E"/>
        <path id="Vector_2"
              d="M12.4959 14.4793C13.5914 14.4793 14.4794 13.5913 14.4794 12.4959C14.4794 11.4004 13.5914 10.5124 12.4959 10.5124C11.4005 10.5124 10.5125 11.4004 10.5125 12.4959C10.5125 13.5913 11.4005 14.4793 12.4959 14.4793Z"
              fill="#8C876E"/>
    </g>
</svg>
