<svg width="30" height="30" viewBox="0 0 30 30" fill="none" xmlns="http://www.w3.org/2000/svg">
<path d="M10.5964 10.4374V22.5845H13.2505" stroke="#FDD96D" stroke-width="1.56" stroke-miterlimit="10"/>
<path d="M13.2505 15.2087H10.5964" stroke="#FDD96D" stroke-width="1.56" stroke-miterlimit="10"/>
<path d="M14.7913 5.43738H6.39174C5.84275 5.43738 5.39771 5.88242 5.39771 6.43141V8.40955C5.39771 8.95854 5.84275 9.40358 6.39174 9.40358H14.7913C15.3403 9.40358 15.7854 8.95854 15.7854 8.40955V6.43141C15.7854 5.88242 15.3403 5.43738 14.7913 5.43738Z" fill="#FDD96D"/>
<path d="M23.5985 13.2306H15.1989C14.6499 13.2306 14.2048 13.6756 14.2048 14.2246V16.2028C14.2048 16.7517 14.6499 17.1968 15.1989 17.1968H23.5985C24.1475 17.1968 24.5925 16.7517 24.5925 16.2028V14.2246C24.5925 13.6756 24.1475 13.2306 23.5985 13.2306Z" fill="#FDD96D"/>
<path d="M23.5985 20.5964H15.1989C14.6499 20.5964 14.2048 21.0415 14.2048 21.5905V23.5686C14.2048 24.1176 14.6499 24.5626 15.1989 24.5626H23.5985C24.1475 24.5626 24.5925 24.1176 24.5925 23.5686V21.5905C24.5925 21.0415 24.1475 20.5964 23.5985 20.5964Z" fill="#FDD96D"/>
</svg>
