<svg width="31" height="31" viewBox="0 0 31 31" fill="none" xmlns="http://www.w3.org/2000/svg">
<g id="Type=unlock_icon, State=Active, theme=dark">
<path id="Vector" d="M18.72 8.52C18.72 7.56257 18.3397 6.64434 17.6627 5.96733C16.9857 5.29032 16.0674 4.90999 15.11 4.90999C14.1526 4.90999 13.2343 5.29032 12.5573 5.96733C11.8803 6.64434 11.5 7.56257 11.5 8.52V12.13" stroke="#EDECE8" stroke-width="1.5" stroke-miterlimit="10" stroke-linecap="round"/>
<path id="Vector_2" d="M19.98 22.45H10.28C9.79993 22.45 9.33956 22.2593 9.00012 21.9199C8.66068 21.5804 8.46997 21.12 8.46997 20.64V13.94C8.46997 13.4599 8.66068 12.9996 9.00012 12.6601C9.33956 12.3207 9.79993 12.13 10.28 12.13H19.98C20.46 12.13 20.9204 12.3207 21.2598 12.6601C21.5993 12.9996 21.79 13.4599 21.79 13.94V20.64C21.79 21.12 21.5993 21.5804 21.2598 21.9199C20.9204 22.2593 20.46 22.45 19.98 22.45ZM16.18 18.91V16.29C16.18 15.88 15.71 15.54 15.18 15.54C14.65 15.54 14.13 15.88 14.13 16.29V18.91C14.13 19.33 14.6 19.66 15.18 19.66C15.76 19.66 16.18 19.36 16.18 18.91Z" fill="#EDECE8"/>
</g>
</svg>
