<svg width="31" height="31" viewBox="0 0 31 31" fill="none" xmlns="http://www.w3.org/2000/svg">
<g id="Type=update_icon, State=Active, theme=dark">
<path id="Vector" d="M21.92 15.12C21.9158 16.4339 21.5305 17.7183 20.8108 18.8175C20.0911 19.9167 19.068 20.7835 17.8654 21.3128C16.6629 21.8421 15.3326 22.0111 14.0359 21.7994C12.7392 21.5877 11.5318 21.0043 10.5601 20.12" stroke="#EDECE8" stroke-width="1.5" stroke-miterlimit="10" stroke-linecap="round"/>
<path id="Vector_2" d="M18.9199 16L21.9099 10.82L24.9099 16H18.9199Z" fill="#EDECE8"/>
<path id="Vector_3" d="M8.3401 15.12C8.33731 13.8042 8.718 12.5161 9.43562 11.4133C10.1532 10.3104 11.1767 9.44059 12.3808 8.91014C13.5849 8.37969 14.9175 8.21163 16.2156 8.4265C17.5137 8.64137 18.7211 9.22985 19.6901 10.12" stroke="#EDECE8" stroke-width="1.5" stroke-miterlimit="10" stroke-linecap="round"/>
<path id="Vector_4" d="M11.3301 14.25L8.34009 19.43L5.34009 14.25H11.3301Z" fill="#EDECE8"/>
</g>
</svg>
