<svg width="30" height="34" viewBox="0 0 30 34" fill="none" xmlns="http://www.w3.org/2000/svg">
<g clip-path="url(#clip0_1158_27820)">
<path d="M30 25.9197V23.0349L25.0188 20.1588L30 17.2827V11.5131L17.5079 18.7294V33.1533L22.4978 30.2685V24.473L27.5224 27.3751L30 25.9457V25.9197Z" fill="#CBC9BD"/>
<path d="M15.0043 14.4239L2.51227 7.21629L7.50216 4.3315L12.4834 7.19896V1.45539L14.987 0.00866301L15.0043 0L17.4819 1.4294V7.22495L22.4978 4.3315L27.4964 7.21629L15.0043 14.4239Z" fill="#CBC9BD"/>
<path d="M0.017326 25.9284L2.52094 27.3751L7.4935 24.499V30.2685L12.4921 33.1533V18.7294L0 11.5131V17.2827L5.01588 20.1588L0 23.0523V25.9197L0.017326 25.9284Z" fill="#CBC9BD"/>
</g>
<defs>
<clipPath id="clip0_1158_27820">
<rect width="30" height="33.1533" fill="white"/>
</clipPath>
</defs>
</svg>
