<svg width="80" height="19" viewBox="0 0 80 19" fill="none" xmlns="http://www.w3.org/2000/svg">
<path d="M3.25391 0.9375L7.68359 9.50391L12.125 0.9375H14.6914L8.80859 11.625V18H6.54688V11.625L0.664062 0.9375H3.25391ZM15.207 11.8008V11.5312C15.207 10.6172 15.3398 9.76953 15.6055 8.98828C15.8711 8.19922 16.2539 7.51562 16.7539 6.9375C17.2539 6.35156 17.8594 5.89844 18.5703 5.57812C19.2812 5.25 20.0781 5.08594 20.9609 5.08594C21.8516 5.08594 22.6523 5.25 23.3633 5.57812C24.082 5.89844 24.6914 6.35156 25.1914 6.9375C25.6992 7.51562 26.0859 8.19922 26.3516 8.98828C26.6172 9.76953 26.75 10.6172 26.75 11.5312V11.8008C26.75 12.7148 26.6172 13.5625 26.3516 14.3438C26.0859 15.125 25.6992 15.8086 25.1914 16.3945C24.6914 16.9727 24.0859 17.4258 23.375 17.7539C22.6719 18.0742 21.875 18.2344 20.9844 18.2344C20.0938 18.2344 19.293 18.0742 18.582 17.7539C17.8711 17.4258 17.2617 16.9727 16.7539 16.3945C16.2539 15.8086 15.8711 15.125 15.6055 14.3438C15.3398 13.5625 15.207 12.7148 15.207 11.8008ZM17.375 11.5312V11.8008C17.375 12.4336 17.4492 13.0312 17.5977 13.5938C17.7461 14.1484 17.9688 14.6406 18.2656 15.0703C18.5703 15.5 18.9492 15.8398 19.4023 16.0898C19.8555 16.332 20.3828 16.4531 20.9844 16.4531C21.5781 16.4531 22.0977 16.332 22.543 16.0898C22.9961 15.8398 23.3711 15.5 23.668 15.0703C23.9648 14.6406 24.1875 14.1484 24.3359 13.5938C24.4922 13.0312 24.5703 12.4336 24.5703 11.8008V11.5312C24.5703 10.9062 24.4922 10.3164 24.3359 9.76172C24.1875 9.19922 23.9609 8.70312 23.6562 8.27344C23.3594 7.83594 22.9844 7.49219 22.5312 7.24219C22.0859 6.99219 21.5625 6.86719 20.9609 6.86719C20.3672 6.86719 19.8438 6.99219 19.3906 7.24219C18.9453 7.49219 18.5703 7.83594 18.2656 8.27344C17.9688 8.70312 17.7461 9.19922 17.5977 9.76172C17.4492 10.3164 17.375 10.9062 17.375 11.5312ZM37.2266 15.0703V5.32031H39.4062V18H37.332L37.2266 15.0703ZM37.6367 12.3984L38.5391 12.375C38.5391 13.2188 38.4492 14 38.2695 14.7188C38.0977 15.4297 37.8164 16.0469 37.4258 16.5703C37.0352 17.0938 36.5234 17.5039 35.8906 17.8008C35.2578 18.0898 34.4883 18.2344 33.582 18.2344C32.9648 18.2344 32.3984 18.1445 31.8828 17.9648C31.375 17.7852 30.9375 17.5078 30.5703 17.1328C30.2031 16.7578 29.918 16.2695 29.7148 15.668C29.5195 15.0664 29.4219 14.3438 29.4219 13.5V5.32031H31.5898V13.5234C31.5898 14.0938 31.6523 14.5664 31.7773 14.9414C31.9102 15.3086 32.0859 15.6016 32.3047 15.8203C32.5312 16.0312 32.7812 16.1797 33.0547 16.2656C33.3359 16.3516 33.625 16.3945 33.9219 16.3945C34.8438 16.3945 35.5742 16.2188 36.1133 15.8672C36.6523 15.5078 37.0391 15.0273 37.2734 14.4258C37.5156 13.8164 37.6367 13.1406 37.6367 12.3984ZM47.5273 12.8438L50.9141 0.9375H52.5547L51.6055 5.56641L47.9609 18H46.332L47.5273 12.8438ZM44.0234 0.9375L46.7188 12.6094L47.5273 18H45.9102L41.7734 0.9375H44.0234ZM56.9375 12.5977L59.5742 0.9375H61.8359L57.7109 18H56.0938L56.9375 12.5977ZM52.8008 0.9375L56.0938 12.8438L57.2891 18H55.6602L52.1445 5.56641L51.1836 0.9375H52.8008ZM63.0664 11.8008V11.5312C63.0664 10.6172 63.1992 9.76953 63.4648 8.98828C63.7305 8.19922 64.1133 7.51562 64.6133 6.9375C65.1133 6.35156 65.7188 5.89844 66.4297 5.57812C67.1406 5.25 67.9375 5.08594 68.8203 5.08594C69.7109 5.08594 70.5117 5.25 71.2227 5.57812C71.9414 5.89844 72.5508 6.35156 73.0508 6.9375C73.5586 7.51562 73.9453 8.19922 74.2109 8.98828C74.4766 9.76953 74.6094 10.6172 74.6094 11.5312V11.8008C74.6094 12.7148 74.4766 13.5625 74.2109 14.3438C73.9453 15.125 73.5586 15.8086 73.0508 16.3945C72.5508 16.9727 71.9453 17.4258 71.2344 17.7539C70.5312 18.0742 69.7344 18.2344 68.8438 18.2344C67.9531 18.2344 67.1523 18.0742 66.4414 17.7539C65.7305 17.4258 65.1211 16.9727 64.6133 16.3945C64.1133 15.8086 63.7305 15.125 63.4648 14.3438C63.1992 13.5625 63.0664 12.7148 63.0664 11.8008ZM65.2344 11.5312V11.8008C65.2344 12.4336 65.3086 13.0312 65.457 13.5938C65.6055 14.1484 65.8281 14.6406 66.125 15.0703C66.4297 15.5 66.8086 15.8398 67.2617 16.0898C67.7148 16.332 68.2422 16.4531 68.8438 16.4531C69.4375 16.4531 69.957 16.332 70.4023 16.0898C70.8555 15.8398 71.2305 15.5 71.5273 15.0703C71.8242 14.6406 72.0469 14.1484 72.1953 13.5938C72.3516 13.0312 72.4297 12.4336 72.4297 11.8008V11.5312C72.4297 10.9062 72.3516 10.3164 72.1953 9.76172C72.0469 9.19922 71.8203 8.70312 71.5156 8.27344C71.2188 7.83594 70.8438 7.49219 70.3906 7.24219C69.9453 6.99219 69.4219 6.86719 68.8203 6.86719C68.2266 6.86719 67.7031 6.99219 67.25 7.24219C66.8047 7.49219 66.4297 7.83594 66.125 8.27344C65.8281 8.70312 65.6055 9.19922 65.457 9.76172C65.3086 10.3164 65.2344 10.9062 65.2344 11.5312ZM79.6836 0V18H77.5039V0H79.6836Z" fill="#CBC9BD"/>
</svg>
